{"asset":{"version":"2.0","generator":"VECTARY"},"nodes":[{"translation":[0,0,0],"scale":[0.001,0.001,0.001],"rotation":[-0.7071067811865475,0,0,0.7071067811865476],"name":"Sketchfab_model","children":[1]},{"translation":[0,0,0],"scale":[1,1,1],"rotation":[0.7071067811865475,0,0,0.7071067811865476],"name":"b7829eead0fe4544a1d8a1e2988731ce.fbx","children":[2]},{"translation":[0,0,0],"scale":[1,1,1],"rotation":[0,0,0,1],"name":"RootNode","children":[3,5,29,31,33,35]},{"translation":[0,100,0],"scale":[100,100.00000000000001,100.00000000000001],"rotation":[-0.7071068387877036,0,0,0.7071067235853867],"name":"Cube","children":[4]},{"translation":[0,0,0],"scale":[1,1,1],"rotation":[0,0,0,1],"name":"Cube_Body_0","mesh":0},{"translation":[0,213.24146179345308,0.000002227592365953482],"scale":[1,1,1],"rotation":[0,0,0,1],"name":"Lid","children":[6,8]},{"translation":[0,-30.11723999169527,-0.0000022275923612369297],"scale":[100,100.00000000000001,100.00000000000001],"rotation":[-0.7071068387877036,0,0,0.7071067235853867],"name":"Cube.001","children":[7]},{"translation":[0,0,0],"scale":[1,1,1],"rotation":[0,0,0,1],"name":"Cube.001_Body_0","mesh":1},{"translation":[-0.03503131865055309,26.979506455416697,-94.97470463186478],"scale":[1,1,1],"rotation":[0,0,0,1],"name":"Tie","children":[9,11,13,15,17,19,21,23,25,27]},{"translation":[0.03503131865055309,4.152307507966157,119.09434466196285],"scale":[100,68,40.000000000000014],"rotation":[-0.7071068387877035,0,0,0.7071067235853867],"name":"Cube.006","children":[10]},{"translation":[0,0,0],"scale":[1,1,1],"rotation":[0,0,0,1],"name":"Cube.006_Material_0","mesh":2},{"translation":[24.30810832975895,8.106378552888032,95.03325800729976],"scale":[100.00000000000006,68.00000000000003,40.00000000000001],"rotation":[0.5000000218556951,-0.49999997814430497,-0.49999999999999933,-0.49999999999999944],"name":"Cube.007","children":[12]},{"translation":[0,0,0],"scale":[1,1,1],"rotation":[0,0,0,1],"name":"Cube.007_Material_0","mesh":3},{"translation":[-24.308108329786947,8.106378552888032,95.03325800729976],"scale":[100.00000000000006,68.00000000000003,40.00000000000001],"rotation":[0.5000000218556951,0.49999997814430497,0.49999999999999933,-0.49999999999999944],"name":"Cube.008","children":[14]},{"translation":[0,0,0],"scale":[1,1,1],"rotation":[0,0,0,1],"name":"Cube.008_Material_0","mesh":4},{"translation":[0.03503131865055309,4.152307507966157,71.17941622568355],"scale":[99.99999999999999,67.99999999999999,39.99999999999999],"rotation":[5.3385074764448567e-8,0.7071068078790836,0.7071067544940064,-5.33850787083141e-8],"name":"Cube.009","children":[16]},{"translation":[0,0,0],"scale":[1,1,1],"rotation":[0,0,0,1],"name":"Cube.009_Material_0","mesh":5},{"translation":[0.03503131865055309,-16.70998192074478,104.78513674570308],"scale":[100,68.00000000000001,39.999996185302734],"rotation":[5.460668804439559e-8,0.29320615068480016,0.9560492420375628,2.897379318563289e-8],"name":"Cube.010","children":[18]},{"translation":[0,0,0],"scale":[1,1,1],"rotation":[0,0,0,1],"name":"Cube.010_Material_0","mesh":6},{"translation":[-8.512485504164388,-12.755910875822906,94.37548349930034],"scale":[100,68,39.999996185302734],"rotation":[0.6760289305961412,-0.2073280402054807,-0.6760288795573786,-0.2073280558583126],"name":"Cube.011","children":[20]},{"translation":[0,0,0],"scale":[1,1,1],"rotation":[0,0,0,1],"name":"Cube.011_Material_0","mesh":7},{"translation":[8.735183715806315,-12.755910875822906,94.37548349930034],"scale":[100,68,39.999996185302734],"rotation":[0.6760289305961412,0.2073280402054807,0.6760288795573786,-0.2073280558583126],"name":"Cube.012","children":[22]},{"translation":[0,0,0],"scale":[1,1,1],"rotation":[0,0,0,1],"name":"Cube.012_Material_0","mesh":8},{"translation":[0.03503131865055309,-16.70998192074478,84.82058005167232],"scale":[100,67.99999999999999,39.99999618530273],"rotation":[0.9560492461157881,0,0,-0.2932061373870491],"name":"Cube.013","children":[24]},{"translation":[0,0,0],"scale":[1,1,1],"rotation":[0,0,0,1],"name":"Cube.013_Material_0","mesh":9},{"translation":[0.03503131865055309,7.393243787263032,94.97470240427242],"scale":[39.99999999999999,18.000003814697262,100.00000000000001],"rotation":[-0.5000000149011604,0.49999998509883886,-0.49999998509883803,0.5000000149011615],"name":"Cylinder","children":[26]},{"translation":[0,0,0],"scale":[1,1,1],"rotation":[0,0,0,1],"name":"Cylinder_Material_0","mesh":10},{"translation":[0.03503131865055309,-34.41638756039322,94.97470240427242],"scale":[9.999999999999998,19.999999999999996,100.00000000000001],"rotation":[-0.5000000149011604,0.49999998509883886,-0.49999998509883803,0.5000000149011615],"name":"Torus","children":[28]},{"translation":[0,0,0],"scale":[1,1,1],"rotation":[0,0,0,1],"name":"Torus_Material_0","mesh":11},{"translation":[0,100,-99.17191314697266],"scale":[17.5,3.0000000000000004,100.00000000000001],"rotation":[-0.7071068387877036,0,0,0.7071067235853867],"name":"Cube.002","children":[30]},{"translation":[0,0,0],"scale":[1,1,1],"rotation":[0,0,0,1],"name":"Cube.002_Material_0","mesh":12},{"translation":[0,100,99.1718978881836],"scale":[17.499999999999996,2.9999999999999996,99.99999999999999],"rotation":[5.3385074764448567e-8,0.7071068078790836,0.7071067544940064,-5.33850787083141e-8],"name":"Cube.003","children":[32]},{"translation":[0,0,0],"scale":[1,1,1],"rotation":[0,0,0,1],"name":"Cube.003_Material_0","mesh":13},{"translation":[-99.1718978881836,100,0],"scale":[17.5,3.0000000000000013,100.00000000000004],"rotation":[0.5000000218556953,-0.4999999781443047,-0.49999999999999933,-0.4999999999999992],"name":"Cube.004","children":[34]},{"translation":[0,0,0],"scale":[1,1,1],"rotation":[0,0,0,1],"name":"Cube.004_Material_0","mesh":14},{"translation":[99.1718978881836,100,0],"scale":[17.5,3.0000000000000013,100.00000000000004],"rotation":[0.5000000218556953,0.4999999781443047,0.49999999999999933,-0.4999999999999992],"name":"Cube.005","children":[36]},{"translation":[0,0,0],"scale":[1,1,1],"rotation":[0,0,0,1],"name":"Cube.005_Material_0","mesh":15}],"materials":[{"pbrMetallicRoughness":{"baseColorFactor":[0.8670237934377415,0.8670237934377415,0.8670237934377415,1],"metallicFactor":0,"roughnessFactor":0.7550510257},"name":"Body","emissiveFactor":[0,0,0],"extensions":{},"alphaMode":"OPAQUE","doubleSided":true},{"pbrMetallicRoughness":{"baseColorFactor":[0.8670237934377415,0.8670237934377415,0.8670237934377415,1],"metallicFactor":0,"roughnessFactor":0.7550510257},"name":"Body","emissiveFactor":[0,0,0],"extensions":{},"alphaMode":"OPAQUE","doubleSided":true},{"pbrMetallicRoughness":{"baseColorFactor":[1,0,0,1],"metallicFactor":0,"roughnessFactor":0.3},"name":"Material","emissiveFactor":[0,0,0],"extensions":{},"alphaMode":"OPAQUE","doubleSided":true},{"pbrMetallicRoughness":{"baseColorFactor":[1,0,0,1],"metallicFactor":0,"roughnessFactor":0.3},"name":"Material","emissiveFactor":[0,0,0],"extensions":{},"alphaMode":"OPAQUE","doubleSided":true},{"pbrMetallicRoughness":{"baseColorFactor":[1,0,0,1],"metallicFactor":0,"roughnessFactor":0.3},"name":"Material","emissiveFactor":[0,0,0],"extensions":{},"alphaMode":"OPAQUE","doubleSided":true},{"pbrMetallicRoughness":{"baseColorFactor":[1,0,0,1],"metallicFactor":0,"roughnessFactor":0.3},"name":"Material","emissiveFactor":[0,0,0],"extensions":{},"alphaMode":"OPAQUE","doubleSided":true},{"pbrMetallicRoughness":{"baseColorFactor":[1,0,0,1],"metallicFactor":0,"roughnessFactor":0.3},"name":"Material","emissiveFactor":[0,0,0],"extensions":{},"alphaMode":"OPAQUE","doubleSided":true},{"pbrMetallicRoughness":{"baseColorFactor":[1,0,0,1],"metallicFactor":0,"roughnessFactor":0.3},"name":"Material","emissiveFactor":[0,0,0],"extensions":{},"alphaMode":"OPAQUE","doubleSided":true},{"pbrMetallicRoughness":{"baseColorFactor":[1,0,0,1],"metallicFactor":0,"roughnessFactor":0.3},"name":"Material","emissiveFactor":[0,0,0],"extensions":{},"alphaMode":"OPAQUE","doubleSided":true},{"pbrMetallicRoughness":{"baseColorFactor":[1,0,0,1],"metallicFactor":0,"roughnessFactor":0.3},"name":"Material","emissiveFactor":[0,0,0],"extensions":{},"alphaMode":"OPAQUE","doubleSided":true},{"pbrMetallicRoughness":{"baseColorFactor":[1,0,0,1],"metallicFactor":0,"roughnessFactor":0.3},"name":"Material","emissiveFactor":[0,0,0],"extensions":{},"alphaMode":"OPAQUE","doubleSided":true},{"pbrMetallicRoughness":{"baseColorFactor":[1,0,0,1],"metallicFactor":0,"roughnessFactor":0.3},"name":"Material","emissiveFactor":[0,0,0],"extensions":{},"alphaMode":"OPAQUE","doubleSided":true},{"pbrMetallicRoughness":{"baseColorFactor":[1,0,0,1],"metallicFactor":0,"roughnessFactor":0.3},"name":"Material","emissiveFactor":[0,0,0],"extensions":{},"alphaMode":"OPAQUE","doubleSided":true},{"pbrMetallicRoughness":{"baseColorFactor":[1,0,0,1],"metallicFactor":0,"roughnessFactor":0.3},"name":"Material","emissiveFactor":[0,0,0],"extensions":{},"alphaMode":"OPAQUE","doubleSided":true},{"pbrMetallicRoughness":{"baseColorFactor":[1,0,0,1],"metallicFactor":0,"roughnessFactor":0.3},"name":"Material","emissiveFactor":[0,0,0],"extensions":{},"alphaMode":"OPAQUE","doubleSided":true},{"pbrMetallicRoughness":{"baseColorFactor":[1,0,0,1],"metallicFactor":0,"roughnessFactor":0.3},"name":"Material","emissiveFactor":[0,0,0],"extensions":{},"alphaMode":"OPAQUE","doubleSided":true}],"meshes":[{"primitives":[{"mode":4,"attributes":{"POSITION":1,"NORMAL":2,"TEXCOORD_0":3},"material":0,"indices":0}]},{"primitives":[{"mode":4,"attributes":{"POSITION":5,"NORMAL":6,"TEXCOORD_0":7},"material":1,"indices":4}]},{"primitives":[{"mode":4,"attributes":{"POSITION":9,"NORMAL":10,"TEXCOORD_0":11},"material":2,"indices":8}]},{"primitives":[{"mode":4,"attributes":{"POSITION":9,"NORMAL":10,"TEXCOORD_0":11},"material":3,"indices":8}]},{"primitives":[{"mode":4,"attributes":{"POSITION":9,"NORMAL":10,"TEXCOORD_0":11},"material":4,"indices":8}]},{"primitives":[{"mode":4,"attributes":{"POSITION":9,"NORMAL":10,"TEXCOORD_0":11},"material":5,"indices":8}]},{"primitives":[{"mode":4,"attributes":{"POSITION":9,"NORMAL":10,"TEXCOORD_0":11},"material":6,"indices":8}]},{"primitives":[{"mode":4,"attributes":{"POSITION":9,"NORMAL":10,"TEXCOORD_0":11},"material":7,"indices":8}]},{"primitives":[{"mode":4,"attributes":{"POSITION":9,"NORMAL":10,"TEXCOORD_0":11},"material":8,"indices":8}]},{"primitives":[{"mode":4,"attributes":{"POSITION":9,"NORMAL":10,"TEXCOORD_0":11},"material":9,"indices":8}]},{"primitives":[{"mode":4,"attributes":{"POSITION":13,"NORMAL":14,"TEXCOORD_0":15},"material":10,"indices":12}]},{"primitives":[{"mode":4,"attributes":{"POSITION":17,"NORMAL":18,"TEXCOORD_0":19},"material":11,"indices":16}]},{"primitives":[{"mode":4,"attributes":{"POSITION":21,"NORMAL":22,"TEXCOORD_0":23},"material":12,"indices":20}]},{"primitives":[{"mode":4,"attributes":{"POSITION":25,"NORMAL":26,"TEXCOORD_0":27},"material":13,"indices":24}]},{"primitives":[{"mode":4,"attributes":{"POSITION":29,"NORMAL":30,"TEXCOORD_0":31},"material":14,"indices":28}]},{"primitives":[{"mode":4,"attributes":{"POSITION":29,"NORMAL":30,"TEXCOORD_0":31},"material":15,"indices":28}]}],"accessors":[{"bufferView":0,"byteOffset":0,"componentType":5125,"count":660,"type":"SCALAR"},{"bufferView":1,"byteOffset":0,"componentType":5126,"count":144,"max":[1,1,0.8608272075653076],"min":[-1,-1,-1],"type":"VEC3"},{"bufferView":2,"byteOffset":0,"componentType":5126,"count":144,"type":"VEC3"},{"bufferView":3,"byteOffset":0,"componentType":5126,"count":144,"type":"VEC2"},{"bufferView":4,"byteOffset":0,"componentType":5125,"count":636,"type":"SCALAR"},{"bufferView":5,"byteOffset":0,"componentType":5126,"count":149,"max":[1.0639640092849731,1.0639640092849731,0.16432908177375793],"min":[-1.0639640092849731,-1.0639640092849731,-0.43778637051582336],"type":"VEC3"},{"bufferView":6,"byteOffset":0,"componentType":5126,"count":149,"type":"VEC3"},{"bufferView":7,"byteOffset":0,"componentType":5126,"count":149,"type":"VEC2"},{"bufferView":8,"byteOffset":0,"componentType":5125,"count":23808,"type":"SCALAR"},{"bufferView":9,"byteOffset":0,"componentType":5126,"count":4342,"max":[0.16499823331832886,0,-0.2674339711666107],"min":[-0.165001779794693,-1.0467561483383179,-1],"type":"VEC3"},{"bufferView":10,"byteOffset":0,"componentType":5126,"count":4342,"type":"VEC3"},{"bufferView":11,"byteOffset":0,"componentType":5126,"count":4342,"type":"VEC2"},{"bufferView":12,"byteOffset":0,"componentType":5125,"count":3072,"type":"SCALAR"},{"bufferView":13,"byteOffset":0,"componentType":5126,"count":582,"max":[0.9880786538124084,0.9880786538124084,0.15205490589141846],"min":[-0.9880785942077637,-0.9880785942077637,-0.15044525265693665],"type":"VEC3"},{"bufferView":14,"byteOffset":0,"componentType":5126,"count":582,"type":"VEC3"},{"bufferView":15,"byteOffset":0,"componentType":5126,"count":582,"type":"VEC2"},{"bufferView":16,"byteOffset":0,"componentType":5125,"count":3456,"type":"SCALAR"},{"bufferView":17,"byteOffset":0,"componentType":5126,"count":637,"max":[1.25,1.25,0.25],"min":[-1.25,-1.25,-0.25],"type":"VEC3"},{"bufferView":18,"byteOffset":0,"componentType":5126,"count":637,"type":"VEC3"},{"bufferView":19,"byteOffset":0,"componentType":5126,"count":637,"type":"VEC2"},{"bufferView":20,"byteOffset":0,"componentType":5125,"count":43008,"type":"SCALAR"},{"bufferView":21,"byteOffset":0,"componentType":5126,"count":7835,"max":[1.0000001192092896,4.443420886993408,1.0521395206451416],"min":[-1.0000001192092896,-33.057769775390625,-1.061542272567749],"type":"VEC3"},{"bufferView":22,"byteOffset":0,"componentType":5126,"count":7835,"type":"VEC3"},{"bufferView":23,"byteOffset":0,"componentType":5126,"count":7835,"type":"VEC2"},{"bufferView":24,"byteOffset":0,"componentType":5125,"count":43008,"type":"SCALAR"},{"bufferView":25,"byteOffset":0,"componentType":5126,"count":7835,"max":[1.0000001192092896,4.443420886993408,1.0521395206451416],"min":[-1.0000001192092896,-33.057769775390625,-1.061542272567749],"type":"VEC3"},{"bufferView":26,"byteOffset":0,"componentType":5126,"count":7835,"type":"VEC3"},{"bufferView":27,"byteOffset":0,"componentType":5126,"count":7835,"type":"VEC2"},{"bufferView":28,"byteOffset":0,"componentType":5125,"count":43008,"type":"SCALAR"},{"bufferView":29,"byteOffset":0,"componentType":5126,"count":7835,"max":[1.0000001192092896,4.443420886993408,1.1075255870819092],"min":[-1.0000001192092896,-33.05712127685547,-1.061542272567749],"type":"VEC3"},{"bufferView":30,"byteOffset":0,"componentType":5126,"count":7835,"type":"VEC3"},{"bufferView":31,"byteOffset":0,"componentType":5126,"count":7835,"type":"VEC2"}],"bufferViews":[{"buffer":0,"byteOffset":0,"byteLength":2640,"target":34963},{"buffer":0,"byteOffset":2640,"byteLength":1728,"target":34962},{"buffer":0,"byteOffset":4368,"byteLength":1728,"target":34962},{"buffer":0,"byteOffset":6096,"byteLength":1152,"target":34962},{"buffer":0,"byteOffset":7248,"byteLength":2544,"target":34963},{"buffer":0,"byteOffset":9792,"byteLength":1788,"target":34962},{"buffer":0,"byteOffset":11580,"byteLength":1788,"target":34962},{"buffer":0,"byteOffset":13368,"byteLength":1192,"target":34962},{"buffer":0,"byteOffset":14560,"byteLength":95232,"target":34963},{"buffer":0,"byteOffset":109792,"byteLength":52104,"target":34962},{"buffer":0,"byteOffset":161896,"byteLength":52104,"target":34962},{"buffer":0,"byteOffset":214000,"byteLength":34736,"target":34962},{"buffer":0,"byteOffset":248736,"byteLength":12288,"target":34963},{"buffer":0,"byteOffset":261024,"byteLength":6984,"target":34962},{"buffer":0,"byteOffset":268008,"byteLength":6984,"target":34962},{"buffer":0,"byteOffset":274992,"byteLength":4656,"target":34962},{"buffer":0,"byteOffset":279648,"byteLength":13824,"target":34963},{"buffer":0,"byteOffset":293472,"byteLength":7644,"target":34962},{"buffer":0,"byteOffset":301116,"byteLength":7644,"target":34962},{"buffer":0,"byteOffset":308760,"byteLength":5096,"target":34962},{"buffer":0,"byteOffset":313856,"byteLength":172032,"target":34963},{"buffer":0,"byteOffset":485888,"byteLength":94020,"target":34962},{"buffer":0,"byteOffset":579908,"byteLength":94020,"target":34962},{"buffer":0,"byteOffset":673928,"byteLength":62680,"target":34962},{"buffer":0,"byteOffset":736608,"byteLength":172032,"target":34963},{"buffer":0,"byteOffset":908640,"byteLength":94020,"target":34962},{"buffer":0,"byteOffset":1002660,"byteLength":94020,"target":34962},{"buffer":0,"byteOffset":1096680,"byteLength":62680,"target":34962},{"buffer":0,"byteOffset":1159360,"byteLength":172032,"target":34963},{"buffer":0,"byteOffset":1331392,"byteLength":94020,"target":34962},{"buffer":0,"byteOffset":1425412,"byteLength":94020,"target":34962},{"buffer":0,"byteOffset":1519432,"byteLength":62680,"target":34962}],"scene":0,"scenes":[{"nodes":[0],"name":"Giftbox"}],"extensionsUsed":["KHR_texture_transform"],"buffers":[{"byteLength":1582112,"uri":"data:application/octet-stream;base64,"}]}